<?xml version="1.0" encoding="UTF-8"?> <!-- Generator: Adobe Illustrator 25.1.0, SVG Export Plug-In . SVG Version: 6.00 Build 0) --> <svg xmlns="http://www.w3.org/2000/svg" xmlns:xlink="http://www.w3.org/1999/xlink" version="1.1" id="ENG" x="0px" y="0px" viewBox="0 0 815 350" style="enable-background:new 0 0 815 350;" xml:space="preserve"> <style type="text/css"> .st0{fill:#E5243B;} .st1{fill:#FFFFFF;} .st2{fill:none;stroke:#FFFFFF;stroke-width:1.3067;stroke-linecap:round;stroke-miterlimit:10;} </style> <g> <rect x="-0.4" class="st0" width="815.8" height="350"></rect> </g> <g> <g> <rect x="275.9" y="43.4" class="st0" width="263.3" height="263.3"></rect> <path class="st1" d="M538.1,44.4v261.3H276.9V44.4H538.1 M540.1,42.4h-2H276.9h-2v2v261.3v2h2h261.3h2v-2V44.4V42.4L540.1,42.4z"></path> </g> <polygon class="st1" points="313.3,78.7 313.4,78.7 313.4,119 322.3,119 322.3,66.4 315.2,66.4 307,75.9 307,85.2 307.1,85.2 "></polygon> <polygon class="st1" points="313.3,78.7 313.4,78.7 313.4,119 322.3,119 322.3,66.4 315.2,66.4 307,75.9 307,85.2 307.1,85.2 "></polygon> <g> <g> <path class="st1" d="M478.1,169c0-4,3.2-7.2,7.2-7.2c4,0,7.2,3.2,7.2,7.2c0,4-3.2,7.2-7.2,7.2C481.3,176.2,478.1,173,478.1,169"></path> <path class="st1" d="M493.8,179c4.9,0.4,8.8,4.6,8.8,9.6v2.4v1.1v16.6c0,1.5-1.3,2.8-2.8,2.8c-1.6,0-2.8-1.3-2.8-2.8v-17.2 c0-0.6-0.2-1.5-1.4-1.5c-0.8,0-1,0.9-1,1.4V243c0,2.2-1.8,4-4,4c-2.2,0-4-1.8-4-4v-29.7c0-0.3-0.1-1.2-1.1-1.2h0 c-1,0-1.2,0.9-1.2,1.2V243c0,2.2-1.8,4-4,4c-2.2,0-4-1.8-4-4v-51.6c0-0.6-0.2-1.4-1-1.4c-1.2,0-1.4,0.9-1.4,1.5v17.2 c0,1.5-1.3,2.8-2.8,2.8c-1.6,0-2.8-1.3-2.8-2.8v-16.6V191v-2.4c0-5,3.8-9.2,8.8-9.6c0.2,0,0.3,0,0.5,0h7.9h7.9 C493.4,179,493.6,179,493.8,179"></path> </g> <g> <path class="st1" d="M435.1,172.8c0-3.8-3.1-6.9-6.8-6.9c-3.8,0-6.9,3.1-6.9,6.9c0,3.8,3.1,6.9,6.9,6.9 C432,179.7,435.1,176.6,435.1,172.8"></path> <path class="st1" d="M414.4,188.3l-5.7,18.5c0,0-1,3.4,1.9,4.2c2.9,0.8,3.7-2.5,3.7-2.5l4.6-15.5c0,0,0.2-1.2,1.1-0.9 c0.9,0.3,0.6,1.5,0.6,1.5l-8,29h7.4v20.8c0,2,1.6,3.6,3.6,3.6c2,0,3.6-1.6,3.6-3.6v-20.8h1h1v20.8c0,2,1.6,3.6,3.6,3.6 c2,0,3.6-1.6,3.6-3.6v-20.8h7.4l-8-29c0,0-0.3-1.3,0.6-1.5c0.9-0.3,1.1,0.9,1.1,0.9l4.6,15.5c0,0,0.9,3.3,3.7,2.5 c2.9-0.8,1.9-4.2,1.9-4.2l-5.7-18.5c0,0-2-5.4-6.5-5.4h-7.3H421C416.5,183,414.4,188.3,414.4,188.3"></path> </g> <g> <path class="st1" d="M394,172.8c0-3.8-3.1-6.9-6.8-6.9c-3.8,0-6.8,3.1-6.8,6.9c0,3.8,3.1,6.9,6.8,6.9 C391,179.7,394,176.6,394,172.8"></path> <path class="st1" d="M373.4,188.3l-5.7,18.5c0,0-1,3.4,1.9,4.2c2.9,0.8,3.7-2.5,3.7-2.5l4.6-15.5c0,0,0.2-1.2,1.1-0.9 c0.9,0.3,0.6,1.5,0.6,1.5l-8,29h7.4v20.8c0,2,1.6,3.6,3.6,3.6c2,0,3.6-1.6,3.6-3.6v-20.8h1h1v20.8c0,2,1.6,3.6,3.6,3.6 c2,0,3.6-1.6,3.6-3.6v-20.8h7.4l-8-29c0,0-0.3-1.3,0.6-1.5c0.9-0.3,1.1,0.9,1.1,0.9l4.6,15.5c0,0,0.9,3.3,3.7,2.5 c2.9-0.8,1.9-4.2,1.9-4.2l-5.7-18.5c0,0-2-5.4-6.5-5.4h-7.3h-7.3C375.4,183,373.4,188.3,373.4,188.3"></path> </g> <g> <path class="st1" d="M458.1,211.1c3.2,0,5.7-2.6,5.7-5.7c0-3.2-2.5-5.7-5.7-5.7s-5.7,2.5-5.7,5.7 C452.4,208.6,454.9,211.1,458.1,211.1"></path> <path class="st1" d="M444.4,228.9c-0.3,0.7-0.5,2.1,0.8,2.7c1.6,0.7,2.4-0.8,2.4-0.8l3.1-9.9c0,0,0.5-0.7,0.5,0v23.3h0 c0,1.6,1.3,2.9,2.9,2.9c1.6,0,2.9-1.3,2.9-2.9V235c0,0-0.2-1.3,0.9-1.3c1,0,0.9,1.3,0.9,1.3v9.2c0,1.6,1.3,2.9,2.9,2.9 c1.6,0,2.9-1.3,2.9-2.9v-23.3c0-0.7,0.4-0.2,0.4-0.2l2.4,6.8c0,0,1.1,3,1.4,3.2c1.1,0.5,2.4-0.1,2.8-1.2c0.3-0.7,0.2-1.5-0.2-2.1 l0,0c-0.1-0.2-3.6-9-4-10.2c-1.3-3.8-3.6-3.7-5.9-3.8c-2.3-0.1-3.6,0-3.6,0s-1.4-0.1-4.4,0c-3,0.1-3.9,1.6-7.2,10 C446,224.7,444.4,228.6,444.4,228.9L444.4,228.9z"></path> </g> <g> <g> <path class="st1" d="M332.9,169c0-4-3.2-7.2-7.2-7.2c-4,0-7.2,3.2-7.2,7.2c0,4,3.2,7.2,7.2,7.2C329.6,176.2,332.9,173,332.9,169 "></path> <path class="st1" d="M317.2,179c-4.9,0.4-8.8,4.6-8.8,9.6v2.4v1.1v16.6c0,1.5,1.3,2.8,2.8,2.8c1.6,0,2.8-1.3,2.8-2.8v-17.2 c0-0.6,0.2-1.5,1.4-1.5c0.8,0,1,0.9,1,1.4V243c0,2.2,1.8,4,4,4c2.2,0,4-1.8,4-4v-29.7c0-0.3,0.1-1.2,1.1-1.2h0 c1,0,1.2,0.9,1.2,1.2V243c0,2.2,1.8,4,4,4c2.2,0,4-1.8,4-4v-51.6c0-0.6,0.2-1.4,1-1.4c1.2,0,1.4,0.9,1.4,1.5v17.2 c0,1.5,1.3,2.8,2.8,2.8c1.5,0,2.8-1.3,2.8-2.8v-16.6V191v-2.4c0-5-3.8-9.2-8.8-9.6c-0.2,0-0.3,0-0.5,0h-7.9h-7.9 C317.5,179,317.4,179,317.2,179"></path> </g> <line class="st2" x1="310.9" y1="211.6" x2="304.5" y2="245.7"></line> </g> <g> <path class="st1" d="M346.3,208.2c-0.4-0.6-1-1-1.8-1c-1.1,0-2.1,0.9-2.1,2.1c0,0.3,0.2,0.9,0.2,0.9l5.7,10.4 c0,0,0.4,0.7,0.4,1.4v22.3h0c0,1.6,1.3,2.8,2.8,2.8c1.6,0,2.8-1.3,2.8-2.8v-8.8c0,0-0.2-1.2,0.8-1.2c1,0,0.8,1.2,0.8,1.2v8.8 c0,1.6,1.3,2.8,2.8,2.8c1.6,0,2.8-1.3,2.8-2.8v-22.3c0-0.7,0.3-1.4,0.3-1.4l5.3-9.6c0,0,0.7-1.4,0.7-1.7c0-1.1-0.9-2.1-2.1-2.1 c-0.8,0-1.4,0.4-1.8,1l0,0c-0.2,0.1-2.8,4.9-3.7,5.8c-0.9,0.9-1.8,0.8-1.8,0.8h-3.5h-3.5c0,0-0.8,0.1-1.8-0.8 C349.1,213,346.5,208.3,346.3,208.2L346.3,208.2z"></path> <path class="st1" d="M355.2,211.1c3.2,0,5.7-2.6,5.7-5.7c0-3.2-2.5-5.7-5.7-5.7c-3.2,0-5.7,2.5-5.7,5.7 C349.5,208.6,352.1,211.1,355.2,211.1"></path> <polygon class="st1" points="355.2,219.2 361.7,223.9 364.7,235.1 355.2,235.1 345.7,235.1 348.8,223.9 "></polygon> </g> <g> <path class="st1" d="M478.1,169c0-4,3.2-7.2,7.2-7.2c4,0,7.2,3.2,7.2,7.2c0,4-3.2,7.2-7.2,7.2C481.3,176.2,478.1,173,478.1,169"></path> <path class="st1" d="M493.8,179c4.9,0.4,8.8,4.6,8.8,9.6v2.4v1.1v16.6c0,1.5-1.3,2.8-2.8,2.8c-1.6,0-2.8-1.3-2.8-2.8v-17.2 c0-0.6-0.2-1.5-1.4-1.5c-0.8,0-1,0.9-1,1.4V243c0,2.2-1.8,4-4,4c-2.2,0-4-1.8-4-4v-29.7c0-0.3-0.1-1.2-1.1-1.2h0 c-1,0-1.2,0.9-1.2,1.2V243c0,2.2-1.8,4-4,4c-2.2,0-4-1.8-4-4v-51.6c0-0.6-0.2-1.4-1-1.4c-1.2,0-1.4,0.9-1.4,1.5v17.2 c0,1.5-1.3,2.8-2.8,2.8c-1.6,0-2.8-1.3-2.8-2.8v-16.6V191v-2.4c0-5,3.8-9.2,8.8-9.6c0.2,0,0.3,0,0.5,0h7.9h7.9 C493.4,179,493.6,179,493.8,179"></path> </g> <g> <path class="st1" d="M435.1,172.8c0-3.8-3.1-6.9-6.8-6.9c-3.8,0-6.9,3.1-6.9,6.9c0,3.8,3.1,6.9,6.9,6.9 C432,179.7,435.1,176.6,435.1,172.8"></path> <path class="st1" d="M414.4,188.3l-5.7,18.5c0,0-1,3.4,1.9,4.2c2.9,0.8,3.7-2.5,3.7-2.5l4.6-15.5c0,0,0.2-1.2,1.1-0.9 c0.9,0.3,0.6,1.5,0.6,1.5l-8,29h7.4v20.8c0,2,1.6,3.6,3.6,3.6c2,0,3.6-1.6,3.6-3.6v-20.8h1h1v20.8c0,2,1.6,3.6,3.6,3.6 c2,0,3.6-1.6,3.6-3.6v-20.8h7.4l-8-29c0,0-0.3-1.3,0.6-1.5c0.9-0.3,1.1,0.9,1.1,0.9l4.6,15.5c0,0,0.9,3.3,3.7,2.5 c2.9-0.8,1.9-4.2,1.9-4.2l-5.7-18.5c0,0-2-5.4-6.5-5.4h-7.3H421C416.5,183,414.4,188.3,414.4,188.3"></path> </g> <g> <path class="st1" d="M394,172.8c0-3.8-3.1-6.9-6.8-6.9c-3.8,0-6.8,3.1-6.8,6.9c0,3.8,3.1,6.9,6.8,6.9 C391,179.7,394,176.6,394,172.8"></path> <path class="st1" d="M373.4,188.3l-5.7,18.5c0,0-1,3.4,1.9,4.2c2.9,0.8,3.7-2.5,3.7-2.5l4.6-15.5c0,0,0.2-1.2,1.1-0.9 c0.9,0.3,0.6,1.5,0.6,1.5l-8,29h7.4v20.8c0,2,1.6,3.6,3.6,3.6c2,0,3.6-1.6,3.6-3.6v-20.8h1h1v20.8c0,2,1.6,3.6,3.6,3.6 c2,0,3.6-1.6,3.6-3.6v-20.8h7.4l-8-29c0,0-0.3-1.3,0.6-1.5c0.9-0.3,1.1,0.9,1.1,0.9l4.6,15.5c0,0,0.9,3.3,3.7,2.5 c2.9-0.8,1.9-4.2,1.9-4.2l-5.7-18.5c0,0-2-5.4-6.5-5.4h-7.3h-7.3C375.4,183,373.4,188.3,373.4,188.3"></path> </g> <g> <path class="st1" d="M458.1,211.1c3.2,0,5.7-2.6,5.7-5.7c0-3.2-2.5-5.7-5.7-5.7s-5.7,2.5-5.7,5.7 C452.4,208.6,454.9,211.1,458.1,211.1"></path> <path class="st1" d="M444.4,228.9c-0.3,0.7-0.5,2.1,0.8,2.7c1.6,0.7,2.4-0.8,2.4-0.8l3.1-9.9c0,0,0.5-0.7,0.5,0v23.3h0 c0,1.6,1.3,2.9,2.9,2.9c1.6,0,2.9-1.3,2.9-2.9V235c0,0-0.2-1.3,0.9-1.3c1,0,0.9,1.3,0.9,1.3v9.2c0,1.6,1.3,2.9,2.9,2.9 c1.6,0,2.9-1.3,2.9-2.9v-23.3c0-0.7,0.4-0.2,0.4-0.2l2.4,6.8c0,0,1.1,3,1.4,3.2c1.1,0.5,2.4-0.1,2.8-1.2c0.3-0.7,0.2-1.5-0.2-2.1 l0,0c-0.1-0.2-3.6-9-4-10.2c-1.3-3.8-3.6-3.7-5.9-3.8c-2.3-0.1-3.6,0-3.6,0s-1.4-0.1-4.4,0c-3,0.1-3.9,1.6-7.2,10 C446,224.7,444.4,228.6,444.4,228.9L444.4,228.9z"></path> </g> <g> <g> <path class="st1" d="M332.9,169c0-4-3.2-7.2-7.2-7.2c-4,0-7.2,3.2-7.2,7.2c0,4,3.2,7.2,7.2,7.2C329.6,176.2,332.9,173,332.9,169 "></path> <path class="st1" d="M317.2,179c-4.9,0.4-8.8,4.6-8.8,9.6v2.4v1.1v16.6c0,1.5,1.3,2.8,2.8,2.8c1.6,0,2.8-1.3,2.8-2.8v-17.2 c0-0.6,0.2-1.5,1.4-1.5c0.8,0,1,0.9,1,1.4V243c0,2.2,1.8,4,4,4c2.2,0,4-1.8,4-4v-29.7c0-0.3,0.1-1.2,1.1-1.2h0 c1,0,1.2,0.9,1.2,1.2V243c0,2.2,1.8,4,4,4c2.2,0,4-1.8,4-4v-51.6c0-0.6,0.2-1.4,1-1.4c1.2,0,1.4,0.9,1.4,1.5v17.2 c0,1.5,1.3,2.8,2.8,2.8c1.5,0,2.8-1.3,2.8-2.8v-16.6V191v-2.4c0-5-3.8-9.2-8.8-9.6c-0.2,0-0.3,0-0.5,0h-7.9h-7.9 C317.5,179,317.4,179,317.2,179"></path> </g> <line class="st2" x1="310.9" y1="211.6" x2="304.5" y2="245.7"></line> </g> <g> <path class="st1" d="M346.3,208.2c-0.4-0.6-1-1-1.8-1c-1.1,0-2.1,0.9-2.1,2.1c0,0.3,0.2,0.9,0.2,0.9l5.7,10.4 c0,0,0.4,0.7,0.4,1.4v22.3h0c0,1.6,1.3,2.8,2.8,2.8c1.6,0,2.8-1.3,2.8-2.8v-8.8c0,0-0.2-1.2,0.8-1.2c1,0,0.8,1.2,0.8,1.2v8.8 c0,1.6,1.3,2.8,2.8,2.8c1.6,0,2.8-1.3,2.8-2.8v-22.3c0-0.7,0.3-1.4,0.3-1.4l5.3-9.6c0,0,0.7-1.4,0.7-1.7c0-1.1-0.9-2.1-2.1-2.1 c-0.8,0-1.4,0.4-1.8,1l0,0c-0.2,0.1-2.8,4.9-3.7,5.8c-0.9,0.9-1.8,0.8-1.8,0.8h-3.5h-3.5c0,0-0.8,0.1-1.8-0.8 C349.1,213,346.5,208.3,346.3,208.2L346.3,208.2z"></path> <path class="st1" d="M355.2,211.1c3.2,0,5.7-2.6,5.7-5.7c0-3.2-2.5-5.7-5.7-5.7c-3.2,0-5.7,2.5-5.7,5.7 C349.5,208.6,352.1,211.1,355.2,211.1"></path> <polygon class="st1" points="355.2,219.2 361.7,223.9 364.7,235.1 355.2,235.1 345.7,235.1 348.8,223.9 "></polygon> </g> </g> <g> <path class="st1" d="M354.7,73.8v13.8h-3.1v-22h3.6l4,12.6V65.6h3.1v22h-3.2L354.7,73.8z"></path> <path class="st1" d="M364.4,82V71.3c0-3.4,1.7-5.9,5.6-5.9c3.9,0,5.6,2.5,5.6,5.9V82c0,3.4-1.7,5.9-5.6,5.9 C366.1,87.9,364.4,85.4,364.4,82z M371.9,82.5V70.7c0-1.3-0.6-2.3-1.9-2.3c-1.3,0-1.9,0.9-1.9,2.3v11.8c0,1.3,0.6,2.3,1.9,2.3 C371.4,84.8,371.9,83.9,371.9,82.5z"></path> <path class="st1" d="M351.6,96.5h5.5c3.7,0,5.1,1.9,5.1,4.9v4.6c0,3.1-1.4,5-5.1,5h-1.8v7.5h-3.7V96.5z M355.3,99.5v8.7h1.4 c1.3,0,1.8-0.6,1.8-1.8v-5.1c0-1.2-0.6-1.8-1.8-1.8H355.3z"></path> <path class="st1" d="M364.1,112.8v-10.7c0-3.4,1.7-5.9,5.6-5.9c3.9,0,5.6,2.5,5.6,5.9v10.7c0,3.4-1.7,5.9-5.6,5.9 C365.8,118.8,364.1,116.2,364.1,112.8z M371.6,113.4v-11.8c0-1.3-0.6-2.3-1.9-2.3c-1.3,0-1.9,0.9-1.9,2.3v11.8 c0,1.3,0.6,2.3,1.9,2.3C371,115.7,371.6,114.7,371.6,113.4z"></path> <path class="st1" d="M388.6,96.5l-4.2,22h-4l-4.2-22h3.8l2.5,15.4h0l2.6-15.4H388.6z"></path> <path class="st1" d="M390.2,96.5h8.8v3h-5.1v6.3h3.7v3h-3.7v6.7h5.1v3h-8.8V96.5z"></path> <path class="st1" d="M404.7,108.4v10.1H401v-22h5.4c3.7,0,5.1,1.9,5.1,4.9v2.8c0,2.4-0.8,3.8-3,4.3l3.5,10h-3.9L404.7,108.4z M404.7,99.5v6.9h1.2c1.3,0,1.8-0.7,1.8-1.8v-3.2c0-1.2-0.6-1.8-1.8-1.8H404.7z"></path> <path class="st1" d="M412.7,96.5h9.8v3h-3.1v19h-3.7v-19h-3.1V96.5z"></path> <path class="st1" d="M431.5,110.1v8.4h-3.7v-8.4l-4.1-13.6h3.9l2.2,8.3h0l2.2-8.3h3.5L431.5,110.1z"></path> </g> </g> </svg> 